{
    "asset" : {
        "generator" : "Khronos glTF Blender I/O v1.5.17",
        "version" : "2.0"
    },
    "scene" : 0,
    "scenes" : [
        {
            "name" : "Scene",
            "nodes" : [
                1,
                2,
                3
            ]
        }
    ],
    "nodes" : [
        {
            "mesh" : 0,
            "name" : "redKey"
        },
        {
            "children" : [
                0
            ],
            "name" : "keyRed",
            "rotation" : [
                -0.5,
                0.5,
                0.5,
                0.5
            ],
            "scale" : [
                0.1461700052022934,
                0.1461700052022934,
                0.1461700052022934
            ],
            "translation" : [
                0.0002099999983329326,
                1.3177599906921387,
                0.22080999612808228
            ]
        },
        {
            "name" : "Light",
            "rotation" : [
                0.16907575726509094,
                0.7558803558349609,
                -0.27217137813568115,
                0.570947527885437
            ],
            "translation" : [
                4.076245307922363,
                5.903861999511719,
                -1.0054539442062378
            ]
        },
        {
            "name" : "Camera",
            "rotation" : [
                0.483536034822464,
                0.33687159419059753,
                -0.20870360732078552,
                0.7804827094078064
            ],
            "translation" : [
                7.358891487121582,
                4.958309173583984,
                6.925790786743164
            ]
        }
    ],
    "animations" : [
        {
            "channels" : [
                {
                    "sampler" : 0,
                    "target" : {
                        "node" : 0,
                        "path" : "rotation"
                    }
                },
                {
                    "sampler" : 1,
                    "target" : {
                        "node" : 0,
                        "path" : "translation"
                    }
                },
                {
                    "sampler" : 2,
                    "target" : {
                        "node" : 0,
                        "path" : "scale"
                    }
                }
            ],
            "name" : "redKeyAction",
            "samplers" : [
                {
                    "input" : 12,
                    "interpolation" : "LINEAR",
                    "output" : 13
                },
                {
                    "input" : 12,
                    "interpolation" : "LINEAR",
                    "output" : 14
                },
                {
                    "input" : 12,
                    "interpolation" : "LINEAR",
                    "output" : 15
                }
            ]
        }
    ],
    "materials" : [
        {
            "alphaMode" : "BLEND",
            "doubleSided" : true,
            "name" : "gemaGrande",
            "pbrMetallicRoughness" : {
                "baseColorFactor" : [
                    0.8980095982551575,
                    0,
                    0,
                    0.7726752758026123
                ],
                "roughnessFactor" : 0
            }
        },
        {
            "doubleSided" : true,
            "name" : "codigo",
            "pbrMetallicRoughness" : {
                "baseColorFactor" : [
                    0.37123769521713257,
                    0.19120168685913086,
                    0.009721217676997185,
                    1
                ],
                "roughnessFactor" : 0
            }
        },
        {
            "alphaMode" : "BLEND",
            "doubleSided" : true,
            "name" : "gemaPequea",
            "pbrMetallicRoughness" : {
                "baseColorFactor" : [
                    1,
                    0,
                    0,
                    0.7543826103210449
                ],
                "roughnessFactor" : 0
            }
        },
        {
            "doubleSided" : true,
            "name" : "cuerpo",
            "pbrMetallicRoughness" : {
                "baseColorFactor" : [
                    0.37492436170578003,
                    0.1932898461818695,
                    0.010030119679868221,
                    1
                ],
                "roughnessFactor" : 0
            }
        }
    ],
    "meshes" : [
        {
            "name" : "gemaGrande_0",
            "primitives" : [
                {
                    "attributes" : {
                        "POSITION" : 0,
                        "NORMAL" : 1
                    },
                    "indices" : 2,
                    "material" : 0
                },
                {
                    "attributes" : {
                        "POSITION" : 3,
                        "NORMAL" : 4
                    },
                    "indices" : 5,
                    "material" : 1
                },
                {
                    "attributes" : {
                        "POSITION" : 6,
                        "NORMAL" : 7
                    },
                    "indices" : 8,
                    "material" : 2
                },
                {
                    "attributes" : {
                        "POSITION" : 9,
                        "NORMAL" : 10
                    },
                    "indices" : 11,
                    "material" : 3
                }
            ]
        }
    ],
    "accessors" : [
        {
            "bufferView" : 0,
            "componentType" : 5126,
            "count" : 32,
            "max" : [
                2.2770700454711914,
                0.9790099859237671,
                1.2992099523544312
            ],
            "min" : [
                -2.180150032043457,
                -0.9790099859237671,
                -2.560849905014038
            ],
            "type" : "VEC3"
        },
        {
            "bufferView" : 1,
            "componentType" : 5126,
            "count" : 32,
            "type" : "VEC3"
        },
        {
            "bufferView" : 2,
            "componentType" : 5123,
            "count" : 36,
            "type" : "SCALAR"
        },
        {
            "bufferView" : 3,
            "componentType" : 5126,
            "count" : 468,
            "max" : [
                3.9049599170684814,
                0.2781367599964142,
                -11.698518753051758
            ],
            "min" : [
                0.5364458560943604,
                -0.2781367599964142,
                -17.003437042236328
            ],
            "type" : "VEC3"
        },
        {
            "bufferView" : 4,
            "componentType" : 5126,
            "count" : 468,
            "type" : "VEC3"
        },
        {
            "bufferView" : 5,
            "componentType" : 5123,
            "count" : 552,
            "type" : "SCALAR"
        },
        {
            "bufferView" : 6,
            "componentType" : 5126,
            "count" : 36,
            "max" : [
                2.846616744995117,
                0.13245703279972076,
                -13.69705867767334
            ],
            "min" : [
                1.314702033996582,
                -0.13245703279972076,
                -15.023743629455566
            ],
            "type" : "VEC3"
        },
        {
            "bufferView" : 7,
            "componentType" : 5126,
            "count" : 36,
            "type" : "VEC3"
        },
        {
            "bufferView" : 8,
            "componentType" : 5123,
            "count" : 36,
            "type" : "SCALAR"
        },
        {
            "bufferView" : 9,
            "componentType" : 5126,
            "count" : 749,
            "max" : [
                3.582859754562378,
                0.9553999304771423,
                2.055738925933838
            ],
            "min" : [
                -3.4859297275543213,
                -0.9553999304771423,
                -17.35489845275879
            ],
            "type" : "VEC3"
        },
        {
            "bufferView" : 10,
            "componentType" : 5126,
            "count" : 749,
            "type" : "VEC3"
        },
        {
            "bufferView" : 11,
            "componentType" : 5123,
            "count" : 798,
            "type" : "SCALAR"
        },
        {
            "bufferView" : 12,
            "componentType" : 5126,
            "count" : 60,
            "max" : [
                2.5
            ],
            "min" : [
                0.041666666666666664
            ],
            "type" : "SCALAR"
        },
        {
            "bufferView" : 13,
            "componentType" : 5126,
            "count" : 60,
            "type" : "VEC4"
        },
        {
            "bufferView" : 14,
            "componentType" : 5126,
            "count" : 60,
            "type" : "VEC3"
        },
        {
            "bufferView" : 15,
            "componentType" : 5126,
            "count" : 60,
            "type" : "VEC3"
        }
    ],
    "bufferViews" : [
        {
            "buffer" : 0,
            "byteLength" : 384,
            "byteOffset" : 0
        },
        {
            "buffer" : 0,
            "byteLength" : 384,
            "byteOffset" : 384
        },
        {
            "buffer" : 0,
            "byteLength" : 72,
            "byteOffset" : 768
        },
        {
            "buffer" : 0,
            "byteLength" : 5616,
            "byteOffset" : 840
        },
        {
            "buffer" : 0,
            "byteLength" : 5616,
            "byteOffset" : 6456
        },
        {
            "buffer" : 0,
            "byteLength" : 1104,
            "byteOffset" : 12072
        },
        {
            "buffer" : 0,
            "byteLength" : 432,
            "byteOffset" : 13176
        },
        {
            "buffer" : 0,
            "byteLength" : 432,
            "byteOffset" : 13608
        },
        {
            "buffer" : 0,
            "byteLength" : 72,
            "byteOffset" : 14040
        },
        {
            "buffer" : 0,
            "byteLength" : 8988,
            "byteOffset" : 14112
        },
        {
            "buffer" : 0,
            "byteLength" : 8988,
            "byteOffset" : 23100
        },
        {
            "buffer" : 0,
            "byteLength" : 1596,
            "byteOffset" : 32088
        },
        {
            "buffer" : 0,
            "byteLength" : 240,
            "byteOffset" : 33684
        },
        {
            "buffer" : 0,
            "byteLength" : 960,
            "byteOffset" : 33924
        },
        {
            "buffer" : 0,
            "byteLength" : 720,
            "byteOffset" : 34884
        },
        {
            "buffer" : 0,
            "byteLength" : 720,
            "byteOffset" : 35604
        }
    ],
    "buffers" : [
        {
            "byteLength" : 36324,
            "uri" : "data:application/octet-stream;base64,"
        }
    ]
}
